<mxfile host="app.diagrams.net" agent="Mozilla/5.0 (Macintosh; Intel Mac OS X 10.15; rv:132.0) Gecko/20100101 Firefox/132.0" version="24.9.0">
  <diagram name="Page-1" id="gCyIn5LwwLEo6zyTEe6D">
    <mxGraphModel dx="1390" dy="1835" grid="1" gridSize="10" guides="1" tooltips="1" connect="1" arrows="1" fold="1" page="0" pageScale="1" pageWidth="850" pageHeight="1100" math="0" shadow="0">
      <root>
        <mxCell id="0" />
        <mxCell id="1" parent="0" />
        <mxCell id="6MU27Whc_V-Y_yFQVjix-9" value="Debian Web Server" style="swimlane;startSize=0;dashed=1;spacingTop=-20;" parent="1" vertex="1">
          <mxGeometry x="-120" y="160" width="840" height="540" as="geometry" />
        </mxCell>
        <mxCell id="6MU27Whc_V-Y_yFQVjix-20" value="socket" style="edgeStyle=orthogonalEdgeStyle;rounded=0;orthogonalLoop=1;jettySize=auto;html=1;exitX=1;exitY=0.25;exitDx=0;exitDy=0;entryX=0;entryY=0.25;entryDx=0;entryDy=0;startArrow=classic;startFill=1;" parent="6MU27Whc_V-Y_yFQVjix-9" source="6MU27Whc_V-Y_yFQVjix-3" target="6MU27Whc_V-Y_yFQVjix-5" edge="1">
          <mxGeometry relative="1" as="geometry" />
        </mxCell>
        <mxCell id="6MU27Whc_V-Y_yFQVjix-3" value="Mosquitto" style="swimlane;whiteSpace=wrap;html=1;" parent="6MU27Whc_V-Y_yFQVjix-9" vertex="1">
          <mxGeometry x="120" y="380" width="120" height="90" as="geometry" />
        </mxCell>
        <mxCell id="6MU27Whc_V-Y_yFQVjix-71" value="systemctl on server" style="text;html=1;align=center;verticalAlign=middle;whiteSpace=wrap;rounded=0;" parent="6MU27Whc_V-Y_yFQVjix-3" vertex="1">
          <mxGeometry x="28.94999999999999" y="40" width="60" height="30" as="geometry" />
        </mxCell>
        <mxCell id="6MU27Whc_V-Y_yFQVjix-23" style="edgeStyle=orthogonalEdgeStyle;rounded=0;orthogonalLoop=1;jettySize=auto;html=1;exitX=1;exitY=0.25;exitDx=0;exitDy=0;entryX=0.5;entryY=1;entryDx=0;entryDy=0;startArrow=classic;startFill=1;" parent="6MU27Whc_V-Y_yFQVjix-9" source="6MU27Whc_V-Y_yFQVjix-5" target="6MU27Whc_V-Y_yFQVjix-12" edge="1">
          <mxGeometry relative="1" as="geometry" />
        </mxCell>
        <mxCell id="6MU27Whc_V-Y_yFQVjix-46" value="websocket" style="edgeLabel;html=1;align=center;verticalAlign=middle;resizable=0;points=[];" parent="6MU27Whc_V-Y_yFQVjix-23" vertex="1" connectable="0">
          <mxGeometry x="-0.1895" y="-1" relative="1" as="geometry">
            <mxPoint x="13" y="-41" as="offset" />
          </mxGeometry>
        </mxCell>
        <mxCell id="6MU27Whc_V-Y_yFQVjix-5" value="PythonMQTT" style="swimlane;whiteSpace=wrap;html=1;startSize=30;" parent="6MU27Whc_V-Y_yFQVjix-9" vertex="1">
          <mxGeometry x="370" y="380" width="120" height="90" as="geometry" />
        </mxCell>
        <mxCell id="6MU27Whc_V-Y_yFQVjix-70" value="systemctl on server" style="text;html=1;align=center;verticalAlign=middle;whiteSpace=wrap;rounded=0;" parent="6MU27Whc_V-Y_yFQVjix-5" vertex="1">
          <mxGeometry x="30" y="40" width="60" height="30" as="geometry" />
        </mxCell>
        <mxCell id="6MU27Whc_V-Y_yFQVjix-30" style="edgeStyle=orthogonalEdgeStyle;rounded=0;orthogonalLoop=1;jettySize=auto;html=1;exitX=0;exitY=0.75;exitDx=0;exitDy=0;entryX=1;entryY=0.75;entryDx=0;entryDy=0;startArrow=classic;startFill=1;" parent="6MU27Whc_V-Y_yFQVjix-9" source="6MU27Whc_V-Y_yFQVjix-12" target="6MU27Whc_V-Y_yFQVjix-13" edge="1">
          <mxGeometry relative="1" as="geometry" />
        </mxCell>
        <mxCell id="6MU27Whc_V-Y_yFQVjix-49" value="REST" style="edgeLabel;html=1;align=center;verticalAlign=middle;resizable=0;points=[];" parent="6MU27Whc_V-Y_yFQVjix-30" vertex="1" connectable="0">
          <mxGeometry x="0.3481" y="1" relative="1" as="geometry">
            <mxPoint x="-37" y="-1" as="offset" />
          </mxGeometry>
        </mxCell>
        <mxCell id="6MU27Whc_V-Y_yFQVjix-58" style="edgeStyle=orthogonalEdgeStyle;rounded=0;orthogonalLoop=1;jettySize=auto;html=1;exitX=1;exitY=0.5;exitDx=0;exitDy=0;startArrow=classic;startFill=1;" parent="6MU27Whc_V-Y_yFQVjix-9" source="6MU27Whc_V-Y_yFQVjix-12" target="6MU27Whc_V-Y_yFQVjix-57" edge="1">
          <mxGeometry relative="1" as="geometry" />
        </mxCell>
        <mxCell id="6MU27Whc_V-Y_yFQVjix-66" value="&lt;div&gt;&lt;br&gt;&lt;/div&gt;&lt;div&gt;&lt;br&gt;&lt;/div&gt;" style="edgeLabel;html=1;align=center;verticalAlign=middle;resizable=0;points=[];" parent="6MU27Whc_V-Y_yFQVjix-58" vertex="1" connectable="0">
          <mxGeometry x="0.2" y="-2" relative="1" as="geometry">
            <mxPoint as="offset" />
          </mxGeometry>
        </mxCell>
        <mxCell id="6MU27Whc_V-Y_yFQVjix-76" value="socket?" style="edgeLabel;html=1;align=center;verticalAlign=middle;resizable=0;points=[];" parent="6MU27Whc_V-Y_yFQVjix-58" vertex="1" connectable="0">
          <mxGeometry x="0.1103" relative="1" as="geometry">
            <mxPoint as="offset" />
          </mxGeometry>
        </mxCell>
        <mxCell id="6MU27Whc_V-Y_yFQVjix-12" value="Flask" style="swimlane;whiteSpace=wrap;html=1;" parent="6MU27Whc_V-Y_yFQVjix-9" vertex="1">
          <mxGeometry x="510" y="160" width="120" height="160" as="geometry" />
        </mxCell>
        <mxCell id="6MU27Whc_V-Y_yFQVjix-72" value="eventlet by gunicorn" style="text;html=1;align=center;verticalAlign=middle;whiteSpace=wrap;rounded=0;" parent="6MU27Whc_V-Y_yFQVjix-12" vertex="1">
          <mxGeometry x="30" y="60" width="60" height="30" as="geometry" />
        </mxCell>
        <mxCell id="6MU27Whc_V-Y_yFQVjix-29" style="edgeStyle=orthogonalEdgeStyle;rounded=0;orthogonalLoop=1;jettySize=auto;html=1;exitX=1;exitY=0.25;exitDx=0;exitDy=0;entryX=0;entryY=0.25;entryDx=0;entryDy=0;startArrow=classic;startFill=1;" parent="6MU27Whc_V-Y_yFQVjix-9" source="6MU27Whc_V-Y_yFQVjix-13" target="6MU27Whc_V-Y_yFQVjix-12" edge="1">
          <mxGeometry relative="1" as="geometry" />
        </mxCell>
        <mxCell id="6MU27Whc_V-Y_yFQVjix-54" value="websocket" style="edgeLabel;html=1;align=center;verticalAlign=middle;resizable=0;points=[];" parent="6MU27Whc_V-Y_yFQVjix-29" vertex="1" connectable="0">
          <mxGeometry x="-0.3704" y="1" relative="1" as="geometry">
            <mxPoint x="-34" y="1" as="offset" />
          </mxGeometry>
        </mxCell>
        <mxCell id="6MU27Whc_V-Y_yFQVjix-33" style="edgeStyle=orthogonalEdgeStyle;rounded=0;orthogonalLoop=1;jettySize=auto;html=1;exitX=0.5;exitY=1;exitDx=0;exitDy=0;startArrow=classic;startFill=1;" parent="6MU27Whc_V-Y_yFQVjix-9" source="6MU27Whc_V-Y_yFQVjix-13" target="6MU27Whc_V-Y_yFQVjix-3" edge="1">
          <mxGeometry relative="1" as="geometry" />
        </mxCell>
        <mxCell id="6MU27Whc_V-Y_yFQVjix-55" value="socket" style="edgeLabel;html=1;align=center;verticalAlign=middle;resizable=0;points=[];" parent="6MU27Whc_V-Y_yFQVjix-33" vertex="1" connectable="0">
          <mxGeometry x="0.0571" y="3" relative="1" as="geometry">
            <mxPoint x="-3" y="-3" as="offset" />
          </mxGeometry>
        </mxCell>
        <mxCell id="6MU27Whc_V-Y_yFQVjix-13" value="NGINX" style="swimlane;whiteSpace=wrap;html=1;" parent="6MU27Whc_V-Y_yFQVjix-9" vertex="1">
          <mxGeometry x="130" y="100" width="120" height="160" as="geometry" />
        </mxCell>
        <mxCell id="6MU27Whc_V-Y_yFQVjix-48" value="&lt;div&gt;Reverse Proxy&lt;/div&gt;&lt;div&gt;for 127.0.0.1:8000&lt;br&gt;&lt;/div&gt;" style="text;html=1;align=center;verticalAlign=middle;resizable=0;points=[];autosize=1;strokeColor=none;fillColor=none;" parent="6MU27Whc_V-Y_yFQVjix-13" vertex="1">
          <mxGeometry y="60" width="120" height="40" as="geometry" />
        </mxCell>
        <mxCell id="6MU27Whc_V-Y_yFQVjix-57" value="DB" style="shape=cylinder3;whiteSpace=wrap;html=1;boundedLbl=1;backgroundOutline=1;size=15;" parent="6MU27Whc_V-Y_yFQVjix-9" vertex="1">
          <mxGeometry x="750" y="200" width="60" height="80" as="geometry" />
        </mxCell>
        <mxCell id="6MU27Whc_V-Y_yFQVjix-73" value="Gunicorn" style="swimlane;startSize=0;spacingTop=-20;dashed=1;" parent="6MU27Whc_V-Y_yFQVjix-9" vertex="1">
          <mxGeometry x="470" y="90" width="200" height="250" as="geometry">
            <mxRectangle x="470" y="90" width="90" height="10" as="alternateBounds" />
          </mxGeometry>
        </mxCell>
        <mxCell id="6MU27Whc_V-Y_yFQVjix-74" value="systemctl on server" style="text;html=1;align=center;verticalAlign=middle;whiteSpace=wrap;rounded=0;" parent="6MU27Whc_V-Y_yFQVjix-73" vertex="1">
          <mxGeometry x="70" y="20" width="60" height="30" as="geometry" />
        </mxCell>
        <mxCell id="6MU27Whc_V-Y_yFQVjix-85" style="edgeStyle=orthogonalEdgeStyle;rounded=0;orthogonalLoop=1;jettySize=auto;html=1;exitX=0;exitY=0.25;exitDx=0;exitDy=0;entryX=0;entryY=0.25;entryDx=0;entryDy=0;" parent="6MU27Whc_V-Y_yFQVjix-9" source="6MU27Whc_V-Y_yFQVjix-9" target="6MU27Whc_V-Y_yFQVjix-13" edge="1">
          <mxGeometry relative="1" as="geometry">
            <Array as="points">
              <mxPoint x="60" y="135" />
              <mxPoint x="60" y="140" />
            </Array>
          </mxGeometry>
        </mxCell>
        <mxCell id="6MU27Whc_V-Y_yFQVjix-1" value="&lt;div&gt;ESP32&lt;/div&gt;" style="swimlane;whiteSpace=wrap;html=1;startSize=30;" parent="1" vertex="1">
          <mxGeometry x="-390" y="280" width="155" height="120" as="geometry" />
        </mxCell>
        <mxCell id="6MU27Whc_V-Y_yFQVjix-75" value="&lt;div&gt;Protocol: MQTT&lt;br&gt;&lt;/div&gt;&lt;div&gt;Host: mqtt.gruppe1.tech&lt;/div&gt;&lt;div&gt;Port: 9002&lt;br&gt;&lt;/div&gt;" style="text;html=1;align=center;verticalAlign=middle;resizable=0;points=[];autosize=1;strokeColor=none;fillColor=none;" parent="6MU27Whc_V-Y_yFQVjix-1" vertex="1">
          <mxGeometry y="40" width="150" height="60" as="geometry" />
        </mxCell>
        <mxCell id="6MU27Whc_V-Y_yFQVjix-15" style="edgeStyle=orthogonalEdgeStyle;rounded=0;orthogonalLoop=1;jettySize=auto;html=1;exitX=1;exitY=0.5;exitDx=0;exitDy=0;entryX=0;entryY=0.25;entryDx=0;entryDy=0;dashed=1;dashPattern=8 8;endArrow=none;endFill=0;startArrow=classic;startFill=1;" parent="1" source="6MU27Whc_V-Y_yFQVjix-1" target="6MU27Whc_V-Y_yFQVjix-9" edge="1">
          <mxGeometry relative="1" as="geometry" />
        </mxCell>
        <mxCell id="6MU27Whc_V-Y_yFQVjix-67" value="websocket" style="edgeLabel;html=1;align=center;verticalAlign=middle;resizable=0;points=[];" parent="6MU27Whc_V-Y_yFQVjix-15" vertex="1" connectable="0">
          <mxGeometry x="0.4611" y="-1" relative="1" as="geometry">
            <mxPoint x="-16" y="14" as="offset" />
          </mxGeometry>
        </mxCell>
        <mxCell id="o-JDEkdmI73gaCv2gA7U-4" style="edgeStyle=orthogonalEdgeStyle;rounded=0;orthogonalLoop=1;jettySize=auto;html=1;exitX=0;exitY=0.5;exitDx=0;exitDy=0;entryX=1;entryY=0.5;entryDx=0;entryDy=0;dashed=1;startArrow=classic;startFill=1;" edge="1" parent="1" source="6MU27Whc_V-Y_yFQVjix-7" target="o-JDEkdmI73gaCv2gA7U-3">
          <mxGeometry relative="1" as="geometry" />
        </mxCell>
        <mxCell id="o-JDEkdmI73gaCv2gA7U-6" value="REST API-kall via JavaScript" style="edgeLabel;html=1;align=center;verticalAlign=middle;resizable=0;points=[];" vertex="1" connectable="0" parent="o-JDEkdmI73gaCv2gA7U-4">
          <mxGeometry x="-0.0479" relative="1" as="geometry">
            <mxPoint as="offset" />
          </mxGeometry>
        </mxCell>
        <mxCell id="6MU27Whc_V-Y_yFQVjix-7" value="Nettleser" style="swimlane;whiteSpace=wrap;html=1;" parent="1" vertex="1">
          <mxGeometry x="280" y="-80" width="200" height="100" as="geometry" />
        </mxCell>
        <mxCell id="6MU27Whc_V-Y_yFQVjix-45" value="https://gruppe1.tech/front" style="text;html=1;align=center;verticalAlign=middle;resizable=0;points=[];autosize=1;strokeColor=none;fillColor=none;" parent="6MU27Whc_V-Y_yFQVjix-7" vertex="1">
          <mxGeometry x="15" y="40" width="160" height="30" as="geometry" />
        </mxCell>
        <mxCell id="6MU27Whc_V-Y_yFQVjix-39" style="edgeStyle=orthogonalEdgeStyle;rounded=0;orthogonalLoop=1;jettySize=auto;html=1;exitX=0;exitY=0.5;exitDx=0;exitDy=0;entryX=0.5;entryY=0;entryDx=0;entryDy=0;startArrow=classic;startFill=1;" parent="1" source="6MU27Whc_V-Y_yFQVjix-41" target="6MU27Whc_V-Y_yFQVjix-7" edge="1">
          <mxGeometry relative="1" as="geometry" />
        </mxCell>
        <mxCell id="6MU27Whc_V-Y_yFQVjix-96" style="edgeStyle=orthogonalEdgeStyle;rounded=0;orthogonalLoop=1;jettySize=auto;html=1;exitX=1;exitY=0.5;exitDx=0;exitDy=0;exitPerimeter=0;entryX=0.5;entryY=1;entryDx=0;entryDy=0;" parent="1" source="6MU27Whc_V-Y_yFQVjix-41" target="6MU27Whc_V-Y_yFQVjix-36" edge="1">
          <mxGeometry relative="1" as="geometry">
            <Array as="points">
              <mxPoint x="300" y="-167" />
              <mxPoint x="300" y="-260" />
              <mxPoint x="316" y="-260" />
            </Array>
          </mxGeometry>
        </mxCell>
        <mxCell id="6MU27Whc_V-Y_yFQVjix-97" style="edgeStyle=orthogonalEdgeStyle;rounded=0;orthogonalLoop=1;jettySize=auto;html=1;exitX=1;exitY=0.5;exitDx=0;exitDy=0;exitPerimeter=0;entryX=0.5;entryY=1;entryDx=0;entryDy=0;startArrow=classic;startFill=1;" parent="1" source="6MU27Whc_V-Y_yFQVjix-41" target="6MU27Whc_V-Y_yFQVjix-35" edge="1">
          <mxGeometry relative="1" as="geometry">
            <Array as="points">
              <mxPoint x="300" y="-167" />
              <mxPoint x="300" y="-260" />
              <mxPoint x="160" y="-260" />
            </Array>
          </mxGeometry>
        </mxCell>
        <mxCell id="6MU27Whc_V-Y_yFQVjix-41" value="" style="shape=mxgraph.cisco.servers.www_server;html=1;pointerEvents=1;dashed=0;fillColor=#036897;strokeColor=#ffffff;strokeWidth=2;verticalLabelPosition=bottom;verticalAlign=top;align=center;outlineConnect=0;" parent="1" vertex="1">
          <mxGeometry x="190" y="-200" width="66" height="67" as="geometry" />
        </mxCell>
        <mxCell id="6MU27Whc_V-Y_yFQVjix-47" value="Eksterne JavaScrip-biblioteker" style="swimlane;startSize=0;dashed=1;spacingTop=-20;" parent="1" vertex="1">
          <mxGeometry x="70" y="-410" width="330" height="170" as="geometry" />
        </mxCell>
        <mxCell id="6MU27Whc_V-Y_yFQVjix-36" value="mazemap" style="swimlane;whiteSpace=wrap;html=1;" parent="6MU27Whc_V-Y_yFQVjix-47" vertex="1">
          <mxGeometry x="186" y="30" width="120" height="90" as="geometry" />
        </mxCell>
        <mxCell id="6MU27Whc_V-Y_yFQVjix-38" value="Lib" style="text;html=1;align=center;verticalAlign=middle;resizable=0;points=[];autosize=1;strokeColor=none;fillColor=none;" parent="6MU27Whc_V-Y_yFQVjix-36" vertex="1">
          <mxGeometry x="40" y="28" width="40" height="30" as="geometry" />
        </mxCell>
        <mxCell id="6MU27Whc_V-Y_yFQVjix-35" value="socketIO" style="swimlane;whiteSpace=wrap;html=1;" parent="6MU27Whc_V-Y_yFQVjix-47" vertex="1">
          <mxGeometry x="30" y="30" width="120" height="90" as="geometry" />
        </mxCell>
        <mxCell id="6MU27Whc_V-Y_yFQVjix-37" value="Lib" style="text;html=1;align=center;verticalAlign=middle;resizable=0;points=[];autosize=1;strokeColor=none;fillColor=none;" parent="6MU27Whc_V-Y_yFQVjix-35" vertex="1">
          <mxGeometry x="40" y="28" width="40" height="30" as="geometry" />
        </mxCell>
        <mxCell id="6MU27Whc_V-Y_yFQVjix-59" value="" style="points=[];aspect=fixed;html=1;align=center;shadow=0;dashed=0;fillColor=#FF6A00;strokeColor=none;shape=mxgraph.alibaba_cloud.dns_domain_name_system;" parent="1" vertex="1">
          <mxGeometry x="36.05" y="40" width="57.9" height="56.97" as="geometry" />
        </mxCell>
        <mxCell id="6MU27Whc_V-Y_yFQVjix-68" value="CloudFlare DNS" style="text;html=1;align=center;verticalAlign=middle;resizable=0;points=[];autosize=1;strokeColor=none;fillColor=none;" parent="1" vertex="1">
          <mxGeometry x="10" y="10" width="110" height="30" as="geometry" />
        </mxCell>
        <mxCell id="6MU27Whc_V-Y_yFQVjix-83" value="" style="endArrow=classic;startArrow=classic;html=1;rounded=0;entryX=0.25;entryY=1;entryDx=0;entryDy=0;" parent="1" target="6MU27Whc_V-Y_yFQVjix-7" edge="1">
          <mxGeometry width="50" height="50" relative="1" as="geometry">
            <mxPoint x="100" y="70" as="sourcePoint" />
            <mxPoint x="100" y="240" as="targetPoint" />
            <Array as="points">
              <mxPoint x="150" y="70" />
              <mxPoint x="150" y="40" />
              <mxPoint x="330" y="40" />
            </Array>
          </mxGeometry>
        </mxCell>
        <mxCell id="6MU27Whc_V-Y_yFQVjix-84" value="&lt;div&gt;REST&lt;/div&gt;" style="edgeLabel;html=1;align=center;verticalAlign=middle;resizable=0;points=[];" parent="6MU27Whc_V-Y_yFQVjix-83" vertex="1" connectable="0">
          <mxGeometry x="0.2702" y="4" relative="1" as="geometry">
            <mxPoint x="-28" y="4" as="offset" />
          </mxGeometry>
        </mxCell>
        <mxCell id="6MU27Whc_V-Y_yFQVjix-86" value="" style="endArrow=classic;startArrow=classic;html=1;rounded=0;exitX=0.25;exitY=0;exitDx=0;exitDy=0;entryX=0.509;entryY=1.001;entryDx=0;entryDy=0;entryPerimeter=0;" parent="1" source="6MU27Whc_V-Y_yFQVjix-13" target="6MU27Whc_V-Y_yFQVjix-59" edge="1">
          <mxGeometry width="50" height="50" relative="1" as="geometry">
            <mxPoint x="50" y="320" as="sourcePoint" />
            <mxPoint x="100" y="270" as="targetPoint" />
            <Array as="points">
              <mxPoint x="40" y="140" />
              <mxPoint x="66" y="140" />
            </Array>
          </mxGeometry>
        </mxCell>
        <mxCell id="6MU27Whc_V-Y_yFQVjix-90" value="REST" style="edgeLabel;html=1;align=center;verticalAlign=middle;resizable=0;points=[];" parent="6MU27Whc_V-Y_yFQVjix-86" vertex="1" connectable="0">
          <mxGeometry x="-0.4479" y="-1" relative="1" as="geometry">
            <mxPoint y="3" as="offset" />
          </mxGeometry>
        </mxCell>
        <mxCell id="6MU27Whc_V-Y_yFQVjix-88" style="edgeStyle=orthogonalEdgeStyle;rounded=0;orthogonalLoop=1;jettySize=auto;html=1;exitX=0.75;exitY=0;exitDx=0;exitDy=0;entryX=0.509;entryY=1.015;entryDx=0;entryDy=0;entryPerimeter=0;startArrow=classic;startFill=1;" parent="1" source="6MU27Whc_V-Y_yFQVjix-13" target="6MU27Whc_V-Y_yFQVjix-59" edge="1">
          <mxGeometry relative="1" as="geometry">
            <Array as="points">
              <mxPoint x="100" y="140" />
              <mxPoint x="66" y="140" />
            </Array>
          </mxGeometry>
        </mxCell>
        <mxCell id="6MU27Whc_V-Y_yFQVjix-89" value="websocket" style="edgeLabel;html=1;align=center;verticalAlign=middle;resizable=0;points=[];" parent="6MU27Whc_V-Y_yFQVjix-88" vertex="1" connectable="0">
          <mxGeometry x="-0.4949" relative="1" as="geometry">
            <mxPoint x="1" as="offset" />
          </mxGeometry>
        </mxCell>
        <mxCell id="6MU27Whc_V-Y_yFQVjix-93" value="" style="endArrow=classic;startArrow=classic;html=1;rounded=0;entryX=0.75;entryY=1;entryDx=0;entryDy=0;" parent="1" target="6MU27Whc_V-Y_yFQVjix-7" edge="1">
          <mxGeometry width="50" height="50" relative="1" as="geometry">
            <mxPoint x="100" y="70" as="sourcePoint" />
            <mxPoint x="430" y="60" as="targetPoint" />
            <Array as="points">
              <mxPoint x="430" y="70" />
            </Array>
          </mxGeometry>
        </mxCell>
        <mxCell id="6MU27Whc_V-Y_yFQVjix-94" value="&lt;div&gt;WebSocket&lt;/div&gt;" style="edgeLabel;html=1;align=center;verticalAlign=middle;resizable=0;points=[];" parent="6MU27Whc_V-Y_yFQVjix-93" vertex="1" connectable="0">
          <mxGeometry x="-0.0596" relative="1" as="geometry">
            <mxPoint x="21" y="-2" as="offset" />
          </mxGeometry>
        </mxCell>
        <mxCell id="6MU27Whc_V-Y_yFQVjix-95" value="CDN" style="text;html=1;align=center;verticalAlign=middle;whiteSpace=wrap;rounded=0;" parent="1" vertex="1">
          <mxGeometry x="196" y="-230" width="60" height="30" as="geometry" />
        </mxCell>
        <mxCell id="6MU27Whc_V-Y_yFQVjix-99" value="&lt;div align=&quot;left&quot;&gt;REST: Api requests/response&lt;br&gt;&lt;/div&gt;" style="edgeLabel;html=1;align=left;verticalAlign=middle;resizable=0;points=[];" parent="1" vertex="1" connectable="0">
          <mxGeometry x="-269.9957142857142" y="-270" as="geometry">
            <mxPoint x="2" y="5" as="offset" />
          </mxGeometry>
        </mxCell>
        <mxCell id="6MU27Whc_V-Y_yFQVjix-100" value="&lt;div align=&quot;left&quot;&gt;WebSocket: Real-time updates&lt;br&gt;&lt;/div&gt;" style="edgeLabel;html=1;align=left;verticalAlign=middle;resizable=0;points=[];" parent="1" vertex="1" connectable="0">
          <mxGeometry x="-269.9957142857142" y="-290" as="geometry">
            <mxPoint x="2" y="5" as="offset" />
          </mxGeometry>
        </mxCell>
        <mxCell id="6MU27Whc_V-Y_yFQVjix-103" value="Technologies" style="swimlane;whiteSpace=wrap;html=1;" parent="1" vertex="1">
          <mxGeometry x="-290" y="-330" width="200" height="110" as="geometry" />
        </mxCell>
        <mxCell id="o-JDEkdmI73gaCv2gA7U-3" value="" style="aspect=fixed;html=1;align=center;shadow=0;dashed=0;spacingTop=3;image=img/lib/active_directory/internet_cloud.svg;shape=mxgraph.ios7.icons.cloud;whiteSpace=wrap;verticalLabelPosition=bottom;labelBackgroundColor=#ffffff;verticalAlign=top;strokeWidth=2;strokeColor=#0080F0;" vertex="1" parent="1">
          <mxGeometry x="-100" y="-50" width="50" height="31.5" as="geometry" />
        </mxCell>
        <mxCell id="o-JDEkdmI73gaCv2gA7U-5" value="MazeMap API" style="text;html=1;align=center;verticalAlign=middle;whiteSpace=wrap;rounded=0;" vertex="1" parent="1">
          <mxGeometry x="-105" y="-80" width="60" height="30" as="geometry" />
        </mxCell>
      </root>
    </mxGraphModel>
  </diagram>
</mxfile>
